<svg id="visual" viewBox="0 0 900 600" width="900" height="600" xmlns="http://www.w3.org/2000/svg" xmlns:xlink="http://www.w3.org/1999/xlink" version="1.1"><rect x="0" y="0" width="900" height="600" fill="#001220"></rect><defs><linearGradient id="grad1_0" x1="33.3%" y1="0%" x2="100%" y2="100%"><stop offset="20%" stop-color="#fcaf3c" stop-opacity="1"></stop><stop offset="80%" stop-color="#fcaf3c" stop-opacity="1"></stop></linearGradient></defs><defs><linearGradient id="grad1_1" x1="33.3%" y1="0%" x2="100%" y2="100%"><stop offset="20%" stop-color="#fcaf3c" stop-opacity="1"></stop><stop offset="80%" stop-color="#e2695f" stop-opacity="1"></stop></linearGradient></defs><defs><linearGradient id="grad1_2" x1="33.3%" y1="0%" x2="100%" y2="100%"><stop offset="20%" stop-color="#97446e" stop-opacity="1"></stop><stop offset="80%" stop-color="#e2695f" stop-opacity="1"></stop></linearGradient></defs><defs><linearGradient id="grad1_3" x1="33.3%" y1="0%" x2="100%" y2="100%"><stop offset="20%" stop-color="#97446e" stop-opacity="1"></stop><stop offset="80%" stop-color="#3d3056" stop-opacity="1"></stop></linearGradient></defs><defs><linearGradient id="grad1_4" x1="33.3%" y1="0%" x2="100%" y2="100%"><stop offset="20%" stop-color="#001220" stop-opacity="1"></stop><stop offset="80%" stop-color="#3d3056" stop-opacity="1"></stop></linearGradient></defs><defs><linearGradient id="grad2_0" x1="0%" y1="0%" x2="66.7%" y2="100%"><stop offset="20%" stop-color="#fcaf3c" stop-opacity="1"></stop><stop offset="80%" stop-color="#fcaf3c" stop-opacity="1"></stop></linearGradient></defs><defs><linearGradient id="grad2_1" x1="0%" y1="0%" x2="66.7%" y2="100%"><stop offset="20%" stop-color="#e2695f" stop-opacity="1"></stop><stop offset="80%" stop-color="#fcaf3c" stop-opacity="1"></stop></linearGradient></defs><defs><linearGradient id="grad2_2" x1="0%" y1="0%" x2="66.7%" y2="100%"><stop offset="20%" stop-color="#e2695f" stop-opacity="1"></stop><stop offset="80%" stop-color="#97446e" stop-opacity="1"></stop></linearGradient></defs><defs><linearGradient id="grad2_3" x1="0%" y1="0%" x2="66.7%" y2="100%"><stop offset="20%" stop-color="#3d3056" stop-opacity="1"></stop><stop offset="80%" stop-color="#97446e" stop-opacity="1"></stop></linearGradient></defs><defs><linearGradient id="grad2_4" x1="0%" y1="0%" x2="66.7%" y2="100%"><stop offset="20%" stop-color="#3d3056" stop-opacity="1"></stop><stop offset="80%" stop-color="#001220" stop-opacity="1"></stop></linearGradient></defs><g transform="translate(900, 0)"><path d="M0 297.5C-58 293.1 -116 288.8 -148.7 257.6C-181.5 226.4 -189 168.4 -209.6 121C-230.2 73.6 -263.8 36.8 -297.5 0L0 0Z" fill="#19233d"></path><path d="M0 238C-46.4 234.5 -92.8 231 -119 206.1C-145.2 181.1 -151.2 134.7 -167.7 96.8C-184.1 58.9 -211 29.4 -238 0L0 0Z" fill="#693b68"></path><path d="M0 178.5C-34.8 175.9 -69.6 173.3 -89.2 154.6C-108.9 135.9 -113.4 101 -125.7 72.6C-138.1 44.2 -158.3 22.1 -178.5 0L0 0Z" fill="#c1526b"></path><path d="M0 119C-23.2 117.2 -46.4 115.5 -59.5 103C-72.6 90.6 -75.6 67.4 -83.8 48.4C-92.1 29.4 -105.5 14.7 -119 0L0 0Z" fill="#f7894d"></path><path d="M0 59.5C-11.6 58.6 -23.2 57.8 -29.7 51.5C-36.3 45.3 -37.8 33.7 -41.9 24.2C-46 14.7 -52.8 7.4 -59.5 0L0 0Z" fill="#fcaf3c"></path></g><g transform="translate(0, 600)"><path d="M0 -297.5C63.4 -296.3 126.8 -295.1 148.7 -257.6C170.6 -220.2 151 -146.5 168.9 -97.5C186.7 -48.5 242.1 -24.3 297.5 0L0 0Z" fill="#19233d"></path><path d="M0 -238C50.7 -237 101.5 -236 119 -206.1C136.5 -176.1 120.8 -117.2 135.1 -78C149.4 -38.8 193.7 -19.4 238 0L0 0Z" fill="#693b68"></path><path d="M0 -178.5C38 -177.8 76.1 -177 89.2 -154.6C102.4 -132.1 90.6 -87.9 101.3 -58.5C112 -29.1 145.3 -14.6 178.5 0L0 0Z" fill="#c1526b"></path><path d="M0 -119C25.4 -118.5 50.7 -118 59.5 -103C68.3 -88.1 60.4 -58.6 67.5 -39C74.7 -19.4 96.8 -9.7 119 0L0 0Z" fill="#f7894d"></path><path d="M0 -59.5C12.7 -59.3 25.4 -59 29.7 -51.5C34.1 -44 30.2 -29.3 33.8 -19.5C37.3 -9.7 48.4 -4.9 59.5 0L0 0Z" fill="#fcaf3c"></path></g></svg>